<svg width="50" height="50" viewBox="0 0 50 50" fill="none" xmlns="http://www.w3.org/2000/svg">
<path fill-rule="evenodd" clip-rule="evenodd" d="M35.9375 23.4375H19.3969L25.8375 17C26.4469 16.3906 26.4469 15.4062 25.8375 14.7812C25.2266 14.1718 24.2375 14.1718 23.6266 14.7812L14.7875 23.625C14.414 24 14.2969 24.5156 14.3828 25C14.2969 25.4844 14.414 26 14.7875 26.375L23.6266 35.2188C24.2375 35.8282 25.2266 35.8282 25.8375 35.2188C26.4469 34.6094 26.4469 33.6094 25.8375 33L19.3969 26.5625H35.9375C36.8 26.5625 37.5 25.8594 37.5 25C37.5 24.1406 36.8 23.4375 35.9375 23.4375ZM25 46.875C12.9187 46.875 3.125 37.0781 3.125 25C3.125 12.9219 12.9187 3.125 25 3.125C37.0812 3.125 46.875 12.9219 46.875 25C46.875 37.0781 37.0812 46.875 25 46.875ZM25 0C11.1937 0 0 11.1875 0 25C0 38.8125 11.1937 50 25 50C38.8063 50 50 38.8125 50 25C50 11.1875 38.8063 0 25 0Z" fill="#005DFF"/>
</svg>
