<svg width="37" height="37" viewBox="0 0 37 37" fill="none" xmlns="http://www.w3.org/2000/svg">
<g clip-path="url(#clip0_55_224)">
<path fill-rule="evenodd" clip-rule="evenodd" d="M18.4998 14.8V18.5H22.1998C22.1998 16.4557 20.5441 14.8 18.4998 14.8ZM18.4998 7.4V11.1C22.5809 11.1 25.8998 14.4189 25.8998 18.5H29.5998C29.5998 12.3691 24.6307 7.4 18.4998 7.4ZM18.4998 0V3.7C26.6602 3.7 33.2998 10.3397 33.2998 18.5H36.9998C36.9998 8.28245 28.7174 0 18.4998 0ZM27.106 33.7327C27.0838 33.7993 27.0857 33.79 27.106 33.7327V33.7327ZM26.1163 28.8195C24.8305 28.1276 23.53 27.3392 22.185 26.7898C19.5858 25.7297 19.7615 28.8635 17.906 29.8791C16.6998 30.5396 14.9978 29.3427 13.9451 28.6804C12.1062 27.5223 10.4764 25.9982 9.12218 24.2352C8.42843 23.3342 6.89663 21.6397 7.08533 20.3762C7.38503 18.3708 9.75673 18.2702 9.07778 15.8171C8.71518 14.5036 8.06583 13.2109 7.57928 11.9455C6.92808 10.2491 6.65983 9.16292 4.75988 9.25542C3.38718 9.32202 2.47699 9.90892 1.63339 11.0097C-0.649514 13.9826 -0.305417 17.9909 1.22823 21.2524C3.40013 25.8682 7.12233 30.2197 11.098 33.0317C13.8027 34.9446 17.3658 36.6815 20.6403 36.9756C23.0379 37.1921 26.3919 35.8957 27.2503 33.2928C27.1911 33.4741 27.1338 33.6494 27.106 33.7327C27.1264 33.6679 27.1708 33.537 27.2503 33.2928C27.3373 33.0301 27.3798 32.8985 27.4002 32.8393C27.3743 32.917 27.3151 33.0987 27.2522 33.2874C28.007 30.9934 28.0995 29.887 26.1163 28.8195ZM27.4002 32.8393C27.415 32.7912 27.415 32.7949 27.4002 32.8393V32.8393Z" fill="white"/>
</g>
<defs>
<clipPath id="clip0_55_224">
<rect width="37" height="37" fill="white"/>
</clipPath>
</defs>
</svg>
