<svg width="40" height="40" viewBox="0 0 40 40" fill="none" xmlns="http://www.w3.org/2000/svg">
<path d="M8 0.5H32C36.1421 0.5 39.5 3.85786 39.5 8V32C39.5 36.1421 36.1421 39.5 32 39.5H8C3.85786 39.5 0.5 36.1421 0.5 32V8C0.5 3.85786 3.85786 0.5 8 0.5Z" fill="white"/>
<path d="M8 0.5H32C36.1421 0.5 39.5 3.85786 39.5 8V32C39.5 36.1421 36.1421 39.5 32 39.5H8C3.85786 39.5 0.5 36.1421 0.5 32V8C0.5 3.85786 3.85786 0.5 8 0.5Z" stroke="#005DFF"/>
<g clip-path="url(#clip0_107_168)">
<path fill-rule="evenodd" clip-rule="evenodd" d="M17.9997 25.9166C17.9537 25.9166 17.9163 25.9539 17.9163 25.9999C17.9163 26.0459 17.9537 26.0833 17.9997 26.0833C18.0457 26.0833 18.083 26.0459 18.083 25.9999C18.083 25.9539 18.0457 25.9166 17.9997 25.9166ZM16.7497 25.9999C16.7497 25.3096 17.3093 24.7499 17.9997 24.7499C18.69 24.7499 19.2497 25.3096 19.2497 25.9999C19.2497 26.6903 18.69 27.2499 17.9997 27.2499C17.3093 27.2499 16.7497 26.6903 16.7497 25.9999Z" fill="#005DFF"/>
<path fill-rule="evenodd" clip-rule="evenodd" d="M25.333 25.9166C25.287 25.9166 25.2497 25.9539 25.2497 25.9999C25.2497 26.0459 25.287 26.0833 25.333 26.0833C25.379 26.0833 25.4163 26.0459 25.4163 25.9999C25.4163 25.9539 25.379 25.9166 25.333 25.9166ZM24.083 25.9999C24.083 25.3096 24.6427 24.7499 25.333 24.7499C26.0234 24.7499 26.583 25.3096 26.583 25.9999C26.583 26.6903 26.0234 27.2499 25.333 27.2499C24.6427 27.2499 24.083 26.6903 24.083 25.9999Z" fill="#005DFF"/>
<path fill-rule="evenodd" clip-rule="evenodd" d="M12.083 12.6666C12.083 12.3444 12.3442 12.0833 12.6663 12.0833H15.333C15.611 12.0833 15.8504 12.2795 15.905 12.5521L16.4783 15.4166H27.333C27.5069 15.4166 27.6716 15.4941 27.7825 15.6281C27.8933 15.762 27.9386 15.9384 27.906 16.1092L26.8385 21.7069C26.7509 22.1481 26.5108 22.5444 26.1604 22.8265C25.8116 23.1073 25.3755 23.2571 24.9279 23.2499H18.4581C18.0105 23.2571 17.5744 23.1073 17.2256 22.8265C16.8753 22.5445 16.6353 22.1484 16.5476 21.7074V21.7074L15.4335 16.1408C15.4293 16.1238 15.4258 16.1065 15.4231 16.089L14.8549 13.2499H12.6663C12.3442 13.2499 12.083 12.9888 12.083 12.6666ZM16.7118 16.5833L17.6918 21.4796C17.7261 21.6523 17.82 21.8073 17.9572 21.9177C18.0943 22.0281 18.2658 22.0867 18.4418 22.0834L18.453 22.0833H24.933L24.9442 22.0834C25.1202 22.0867 25.2917 22.0281 25.4289 21.9177C25.5655 21.8077 25.6592 21.6534 25.6938 21.4815L25.6942 21.4796L26.6279 16.5833H16.7118Z" fill="#005DFF"/>
</g>
<defs>
<clipPath id="clip0_107_168">
<rect width="16" height="16" fill="white" transform="translate(12 12)"/>
</clipPath>
</defs>
</svg>
