<svg width="26" height="26" viewBox="0 0 26 26" fill="none" xmlns="http://www.w3.org/2000/svg">
<path fill-rule="evenodd" clip-rule="evenodd" d="M7.58317 2.1665C4.59163 2.1665 2.1665 4.59163 2.1665 7.58317V18.4165C2.1665 21.408 4.59163 23.8332 7.58317 23.8332H18.4165C21.408 23.8332 23.8332 21.408 23.8332 18.4165V7.58317C23.8332 4.59163 21.408 2.1665 18.4165 2.1665H7.58317ZM17.0401 11.5741C17.4494 11.1376 17.4273 10.4521 16.9908 10.0428C16.5543 9.63364 15.8687 9.65575 15.4595 10.0922L12.1185 13.6559L10.4696 12.1902C10.0224 11.7927 9.33765 11.833 8.94015 12.2801C8.54266 12.7273 8.58294 13.412 9.03012 13.8095L11.4676 15.9762C11.9064 16.3663 12.5761 16.3357 12.9776 15.9074L17.0401 11.5741Z" fill="#005DFF"/>
</svg>
