<svg width="30" height="30" viewBox="0 0 30 30" fill="none" xmlns="http://www.w3.org/2000/svg">
<g clip-path="url(#clip0_97_137)">
<path d="M0 15C0 6.71562 6.71562 0 15 0C23.2844 0 30 6.71562 30 15C30 23.2844 23.2844 30 15 30C6.71562 30 0 23.2844 0 15Z" fill="#F68634"/>
<path d="M16.6226 18.4L18.8645 20.5644C18.9733 20.6677 19.0599 20.7921 19.1192 20.9299C19.1784 21.0678 19.2089 21.2162 19.2089 21.3663C19.2089 21.5163 19.1784 21.6648 19.1192 21.8026C19.0599 21.9405 18.9733 22.0649 18.8645 22.1682C18.6406 22.3814 18.3433 22.5004 18.0342 22.5004C17.725 22.5004 17.4277 22.3814 17.2038 22.1682L14.9995 20.0413L12.7976 22.1682C12.5738 22.382 12.2759 22.5007 11.9663 22.4994C11.657 22.5008 11.3592 22.382 11.1357 22.1682C11.027 22.0648 10.9404 21.9404 10.8812 21.8026C10.8221 21.6647 10.7916 21.5163 10.7916 21.3663C10.7916 21.2163 10.8221 21.0678 10.8812 20.93C10.9404 20.7921 11.027 20.6677 11.1357 20.5644L13.3776 18.4C12.5556 18.2196 11.7688 17.9052 11.0488 17.4694C10.5001 17.1357 10.3351 16.4356 10.6807 15.9057C11.0257 15.3744 11.7507 15.215 12.3007 15.5494C13.942 16.5457 16.057 16.5463 17.6995 15.5494C18.2495 15.215 18.9745 15.3744 19.3195 15.9057C19.6651 16.435 19.5001 17.1357 18.9507 17.4694C18.2311 17.9055 17.4445 18.2195 16.6226 18.4Z" fill="white"/>
<path fill-rule="evenodd" clip-rule="evenodd" d="M10.98 11.3713C10.98 13.505 12.7781 15.2406 14.99 15.2406C17.2019 15.2406 19 13.505 19 11.3713C19 9.23625 17.2019 7.5 14.99 7.5C12.7781 7.5 10.98 9.23625 10.98 11.3713ZM16.65 11.3713C16.65 10.4869 15.9056 9.76875 14.99 9.76875C14.075 9.76875 13.3294 10.4875 13.3294 11.3713C13.3294 12.2544 14.075 12.9731 14.99 12.9731C15.9056 12.9731 16.65 12.2544 16.65 11.3713Z" fill="white"/>
</g>
<defs>
<clipPath id="clip0_97_137">
<rect width="30" height="30" fill="white"/>
</clipPath>
</defs>
</svg>
