<svg width="30" height="30" viewBox="0 0 30 30" fill="none" xmlns="http://www.w3.org/2000/svg">
<g clip-path="url(#clip0_97_141)">
<path d="M29.7656 15.0513C29.7656 23.1411 23.207 29.6997 15.1172 29.6997C7.02732 29.6997 0.46875 23.1411 0.46875 15.0513C0.46875 6.96141 7.02732 0.402832 15.1172 0.402832C23.207 0.402832 29.7656 6.96141 29.7656 15.0513Z" fill="#4D77A2"/>
<path fill-rule="evenodd" clip-rule="evenodd" d="M14.5639 21.4762H15.7139C15.7139 21.4762 16.0607 21.4383 16.2379 21.2467C16.4008 21.0711 16.396 20.7418 16.396 20.7418C16.396 20.7418 16.373 19.199 17.0896 18.9721C17.796 18.7477 18.7012 20.4626 19.6625 21.1217C20.3893 21.6216 20.9413 21.5119 20.9413 21.5119L23.5092 21.4762C23.5092 21.4762 24.8531 21.3934 24.2156 20.3367C24.1632 20.2497 23.8445 19.5548 22.3056 18.1268C20.6953 16.6325 20.9107 16.8735 22.8513 14.2878C24.0332 12.7131 24.505 11.752 24.3583 11.34C24.2168 10.9473 23.3485 11.0519 23.3485 11.0519L20.4555 11.0697C20.4555 11.0697 20.2414 11.0404 20.082 11.1347C19.9264 11.2278 19.8269 11.4459 19.8269 11.4459C19.8269 11.4459 19.3692 12.6649 18.7585 13.6999C17.4708 15.888 16.9557 16.0027 16.7453 15.8676C16.2558 15.5501 16.3781 14.5953 16.3781 13.9169C16.3781 11.7976 16.6994 10.914 15.752 10.686C15.4384 10.6096 15.2064 10.5596 14.4032 10.5521C13.3704 10.5406 12.497 10.5548 12.0023 10.7969C11.6734 10.9575 11.4197 11.3173 11.574 11.3375C11.7652 11.3628 12.1987 11.4549 12.4282 11.7673C12.724 12.1701 12.7138 13.0751 12.7138 13.0751C12.7138 13.0751 12.8846 15.5705 12.316 15.8802C11.9258 16.0935 11.3916 15.6584 10.2428 13.6744C9.65507 12.6583 9.21134 11.5352 9.21134 11.5352C9.21134 11.5352 9.12591 11.326 8.97292 11.2136C8.78677 11.0771 8.52796 11.0341 8.52796 11.0341L5.78021 11.0518C5.78021 11.0518 5.36724 11.0631 5.21554 11.2431C5.08165 11.4023 5.20552 11.7327 5.20552 11.7327C5.20552 11.7327 7.35632 16.7664 9.79282 19.3026C12.0266 21.6292 14.5639 21.4762 14.5639 21.4762Z" fill="white"/>
</g>
<defs>
<clipPath id="clip0_97_141">
<rect width="30" height="30" fill="white"/>
</clipPath>
</defs>
</svg>
